<svg xmlns="http://www.w3.org/2000/svg" viewBox="0 0 300 100">
  <!-- Alica Text -->
  <text x="50" y="70" font-family="Playfair Display, serif" font-size="60" fill="#C9A96E" font-style="italic">Alica</text>
  
  <!-- Bear Icon (Simplified Outline) -->
  <path d="M220 50 
           a 15 15 0 0 1 15 -15 
           a 15 15 0 0 1 15 15 
           q 0 10 -10 15 
           a 12 12 0 0 1 12 10 
           a 10 10 0 0 1 -10 10 
           h -34 
           a 10 10 0 0 1 -10 -10 
           a 12 12 0 0 1 12 -10 
           q -10 -5 -10 -15 z" 
        fill="none" stroke="#C9A96E" stroke-width="2" />
  <circle cx="228" cy="45" r="2" fill="#C9A96E"/>
  <circle cx="242" cy="45" r="2" fill="#C9A96E"/>
  <path d="M232 52 q 3 3 6 0" fill="none" stroke="#C9A96E" stroke-width="2" stroke-linecap="round"/>
</svg>
